<?xml version="1.0" encoding="UTF-8"?>
<svg xmlns="http://www.w3.org/2000/svg" width="181" height="57" viewBox="0 0 181 57" fill="none">
  <path fill-rule="evenodd" clip-rule="evenodd" d="M86.4996 18.6576V25.0847C86.1289 24.5903 85.6345 24.0959 85.1401 23.6015C84.7693 25.2082 84.2749 27.0622 83.0389 28.9162C84.8929 31.1409 86.1289 34.1072 86.1289 37.1972C86.1289 39.2983 85.6345 41.2759 84.6457 43.1298C83.6569 44.9838 82.2973 46.5906 80.6906 47.8265C78.9602 49.0625 76.9827 50.0513 74.8815 50.4221C72.7804 50.7929 70.5556 50.5457 68.5781 50.1749C66.7241 49.8041 64.8701 49.1861 63.1398 48.3209C61.533 47.4557 60.0499 46.3434 58.8139 44.9838C57.5779 43.6242 56.7127 42.0175 56.2183 40.2871C55.8475 38.8039 55.7239 37.3208 55.7239 35.8376C55.9711 32.5005 57.4543 30.2757 59.4319 28.4218C59.5555 28.1746 59.6791 27.9274 59.8027 27.6802C60.0498 27.1858 60.297 26.6914 60.5442 26.197C60.7914 25.7026 60.915 25.2082 61.1622 24.7139C61.4094 23.9723 61.6566 23.3543 61.7802 22.6127C61.4094 22.6127 61.2858 22.2419 61.2858 21.8711C61.2858 21.5003 61.6566 21.2531 62.0274 21.2531C62.3982 21.2531 62.6454 21.6239 62.6454 21.9947C62.6454 22.3655 62.2746 22.6127 61.9038 22.6127C61.7802 23.3543 61.6566 24.0959 61.4094 24.7139C61.2858 25.2082 61.1622 25.8262 60.915 26.3206C60.7914 26.6914 60.6678 27.0622 60.5442 27.5566C61.7802 26.5678 63.2634 25.8262 64.7465 25.0847C64.8701 24.9611 64.8701 24.9611 64.9937 24.8375C65.3645 24.4667 65.7353 24.2195 66.1061 23.8487C66.8477 23.2307 67.4657 22.4891 68.0837 21.7475C68.4545 21.3767 68.7017 21.0059 68.9488 20.6352C69.196 20.2644 69.5668 19.8936 69.814 19.3992C70.1848 18.9048 70.432 18.4104 70.8028 17.7924C70.6792 17.6688 70.5556 17.5452 70.5556 17.298C70.5556 16.9272 70.8028 16.68 71.1736 16.68C71.5444 16.68 71.7916 16.9272 71.7916 17.298C71.7916 17.6688 71.5444 17.916 71.1736 17.916C71.05 17.916 71.05 17.916 70.9264 17.916C70.6792 18.534 70.432 19.0284 70.0612 19.6464C69.814 20.1408 69.5668 20.5116 69.3196 20.8823C69.0724 21.2531 68.8252 21.7475 68.4545 22.1183C68.0837 22.7363 67.5893 23.2307 67.2185 23.8487C70.432 22.2419 73.5219 20.6352 75.2523 17.916C74.5107 17.5452 74.0163 16.8036 74.0163 15.9385C74.0163 14.7025 75.0051 13.7137 76.2411 13.7137C77.477 13.7137 78.4658 14.7025 78.4658 15.9385C78.4658 17.1744 77.477 18.1632 76.2411 18.1632C76.1175 18.1632 75.8703 18.1632 75.7467 18.1632C75.1287 19.6464 74.1399 20.8823 72.904 21.8711C73.6455 21.7475 74.2635 21.5003 75.0051 21.3767C75.4995 21.2531 76.1175 21.2531 76.6119 21.1295C77.1063 21.1295 77.7242 21.0059 78.2186 21.0059C78.9602 21.0059 79.7018 21.0059 80.4434 21.0059C80.4434 20.6352 80.8142 20.388 81.185 20.388C81.5558 20.388 81.803 20.7587 81.803 21.1295C81.803 21.5003 81.4322 21.7475 81.0614 21.7475C80.6906 21.7475 80.4434 21.5003 80.4434 21.1295C79.7018 21.1295 78.9602 21.2531 78.3422 21.3767C77.8478 21.5003 77.2299 21.5003 76.7355 21.6239C76.2411 21.7475 75.6231 21.8711 75.1287 21.9947C74.1399 22.2419 73.0276 22.6127 72.0388 22.9835C71.5444 23.2307 71.05 23.3543 70.5556 23.6015C70.0612 23.8487 69.5668 24.0959 69.196 24.3431C67.4657 25.4554 65.4881 26.4442 63.7578 27.6802C64.6229 27.433 65.4881 27.1858 66.3533 26.9386C67.4657 26.6914 68.5781 26.4442 69.6904 26.4442C70.432 26.3206 71.05 26.3206 71.7916 26.3206C71.7916 25.9498 72.1624 25.7026 72.5332 25.8262C72.904 25.8262 73.1511 26.197 73.1511 26.5678C73.1511 26.9386 72.7804 27.1858 72.4096 27.1858C72.0388 27.1858 71.7916 26.815 71.7916 26.5678C71.05 26.5678 70.432 26.6914 69.6904 26.815C68.5781 27.0622 67.5893 27.3094 66.4769 27.6802C65.4881 28.051 64.3758 28.4218 63.387 28.9162C62.8926 29.1634 62.3982 29.4106 61.9038 29.6577C61.533 29.9049 61.0386 30.1521 60.6678 30.3993C58.6903 32.6241 57.8251 35.4668 58.8139 39.7927C68.9488 41.0287 98.7358 28.9162 77.1063 2.34277C77.4771 17.916 58.1959 16.5564 54.9824 29.5341C54.488 31.6353 54.1172 33.86 54.1172 36.0848C54.1172 38.0624 54.3644 40.0399 54.8588 42.0175C55.3532 43.7478 56.0947 45.4782 56.9599 47.0849C57.8251 48.5681 58.9375 49.9277 60.1734 51.1637C61.4094 52.276 62.769 53.3884 64.2522 54.13C65.7353 54.8716 67.3421 55.4895 68.9488 55.8603C71.5444 56.3547 74.2635 56.3547 76.7355 55.7367C78.9602 55.2424 80.9378 54.2536 82.7917 52.894C84.0277 51.9052 85.1401 50.9165 86.2524 49.6805V55.6132H92.5559V18.6576H86.4996Z" fill="url(#paint0_linear_361_55)"></path>
  <path d="M35.3303 55.119H28.0381L11.3525 35.0963L6.65581 40.1637V55.119H0.723145V10.1296H6.65581V31.3883L26.6785 10.1296H34.3416L15.3076 30.7704L35.3303 55.119Z" fill="white"></path>
  <path d="M40.3979 55.1188V18.4104H46.7014V55.1188H40.3979Z" fill="white"></path>
  <path d="M131.984 18.4106H138.411V55.1189H131.984V49.5571C130.253 51.5346 128.152 53.1414 125.804 54.2538C123.455 55.3661 120.86 55.9841 118.141 55.9841C114.556 55.9841 111.343 55.1189 108.5 53.5122C105.657 51.7818 103.433 49.5571 101.949 46.5907C100.343 43.6244 99.6011 40.4109 99.6011 36.8266C99.6011 33.2422 100.343 29.9051 101.949 26.9388C103.556 23.9725 105.657 21.7477 108.5 20.0174C111.343 18.287 114.556 17.5454 118.141 17.5454C120.86 17.5454 123.332 18.1634 125.804 19.2758C128.152 20.3881 130.253 21.9949 131.984 23.9725V18.4106ZM125.556 48.1975C127.534 47.0851 129.141 45.4784 130.253 43.5008C131.366 41.5233 131.984 39.2985 131.984 36.703C131.984 34.231 131.366 32.0063 130.253 30.0287C129.141 28.0512 127.534 26.4444 125.556 25.332C123.579 24.2197 121.354 23.6017 119.006 23.6017C116.657 23.6017 114.309 24.2197 112.332 25.4556C110.354 26.568 108.747 28.1748 107.635 30.1523C106.523 32.1299 105.905 34.3546 105.905 36.8266C105.905 39.2985 106.523 41.5233 107.635 43.6244C108.747 45.602 110.23 47.2087 112.332 48.3211C114.309 49.5571 116.41 50.0515 118.882 50.0515C121.354 50.0515 123.455 49.4335 125.556 48.1975Z" fill="white"></path>
  <path d="M172.523 18.7814C174.748 19.6466 176.725 21.2534 178.332 23.6017C179.939 25.9501 180.804 29.04 180.804 32.9951V55.119H174.501V33.1187C174.501 29.5344 173.512 26.9389 171.534 25.4557C169.557 23.8489 167.332 23.1073 164.613 23.1073C162.017 23.1073 159.793 23.9725 157.939 25.8265C156.085 27.5568 155.096 30.5232 155.096 34.6019V55.119H148.792V18.4107H155.096V22.7366C156.456 21.1298 158.062 19.8938 159.916 18.905C161.77 17.9163 163.871 17.4219 165.972 17.4219C168.074 17.4219 170.298 17.9163 172.523 18.7814Z" fill="white"></path>
  <path d="M40.7686 13.2196C40.7686 14.0848 41.0157 14.7028 41.5101 15.1972C42.0045 15.6916 42.6225 15.9388 43.4877 15.9388C44.3529 15.9388 45.0945 15.6916 45.4652 15.1972C45.9596 14.7028 46.2068 14.0848 46.2068 13.2196C46.2068 12.3544 45.9596 11.7365 45.4652 11.2421C44.9709 10.7477 44.2293 10.5005 43.4877 10.5005C42.6225 10.5005 42.0045 10.7477 41.5101 11.2421C41.0157 11.7365 40.7686 12.478 40.7686 13.2196Z" fill="url(#paint1_linear_361_55)"></path>
  <path d="M49.1731 10.5005C48.9259 10.5005 48.6787 10.3769 48.5551 10.1297C47.9371 8.89372 46.8247 7.90494 45.4652 7.41055C44.2292 7.03976 42.746 7.16336 41.5101 7.78134C41.1393 7.90494 40.7685 7.78134 40.6449 7.53415C40.5213 7.16336 40.6449 6.79257 40.8921 6.66897C42.4988 5.92739 44.2292 5.80379 45.9596 6.29818C47.6899 6.91616 49.0495 8.02854 49.7911 9.6353C49.9147 10.0061 49.7911 10.3769 49.5439 10.5005C49.4203 10.5005 49.2967 10.5005 49.1731 10.5005ZM53.8698 8.15214C53.6226 8.15214 53.3754 8.02854 53.2518 7.78134C52.0158 5.3094 49.7911 3.45544 47.1955 2.59026C44.6 1.72508 41.7573 1.97228 39.1617 3.20825C38.7909 3.33185 38.4201 3.20825 38.2965 2.96105C38.1729 2.59026 38.2965 2.21947 38.5437 2.09587C41.3865 0.736306 44.6 0.489111 47.5663 1.47789C50.5327 2.46667 53.0046 4.56782 54.3642 7.41055C54.4878 7.78134 54.3642 8.15213 54.117 8.27573C53.9934 8.15213 53.8698 8.15214 53.8698 8.15214Z" fill="url(#paint2_linear_361_55)"></path>
  <defs>
    <linearGradient id="paint0_linear_361_55" x1="54.3142" y1="29.1608" x2="92.0042" y2="29.1608" gradientUnits="userSpaceOnUse">
      <stop offset="0.00529101" stop-color="#AED252"></stop>
      <stop offset="0.1996" stop-color="#AACF51"></stop>
      <stop offset="0.4009" stop-color="#9EC54E"></stop>
      <stop offset="0.6055" stop-color="#8AB94B"></stop>
      <stop offset="0.811" stop-color="#6EAA47"></stop>
      <stop offset="1" stop-color="#489A45"></stop>
    </linearGradient>
    <linearGradient id="paint1_linear_361_55" x1="43.0991" y1="9.15204" x2="43.6976" y2="15.1969" gradientUnits="userSpaceOnUse">
      <stop offset="0.00529101" stop-color="#AED252"></stop>
      <stop offset="0.1996" stop-color="#AACF51"></stop>
      <stop offset="0.4009" stop-color="#9EC54E"></stop>
      <stop offset="0.6055" stop-color="#8AB94B"></stop>
      <stop offset="0.811" stop-color="#6EAA47"></stop>
      <stop offset="1" stop-color="#489A45"></stop>
    </linearGradient>
    <linearGradient id="paint2_linear_361_55" x1="47.7301" y1="0.157995" x2="45.6066" y2="7.66516" gradientUnits="userSpaceOnUse">
      <stop offset="0.00529101" stop-color="#AED252"></stop>
      <stop offset="0.1996" stop-color="#AACF51"></stop>
      <stop offset="0.4009" stop-color="#9EC54E"></stop>
      <stop offset="0.6055" stop-color="#8AB94B"></stop>
      <stop offset="0.811" stop-color="#6EAA47"></stop>
      <stop offset="1" stop-color="#489A45"></stop>
    </linearGradient>
  </defs>
</svg>
